<svg width="70" height="58" viewBox="0 0 70 58" fill="none" xmlns="http://www.w3.org/2000/svg">
<path d="M26.3725 50.4254H43.6275C43.2827 52.4641 42.2271 54.3149 40.6478 55.6495C39.0685 56.9841 37.0676 57.7164 35 57.7164C32.9323 57.7164 30.9314 56.9841 29.3521 55.6495C27.7729 54.3149 26.7172 52.4641 26.3725 50.4254ZM35 0.842033C40.8016 0.842033 46.3656 3.14671 50.4679 7.24907C54.5703 11.3514 56.875 16.9154 56.875 22.717V34.3837L61.0108 43.6004C61.1988 44.0219 61.2786 44.4837 61.2428 44.9439C61.207 45.4041 61.0568 45.8481 60.8059 46.2355C60.555 46.6229 60.2112 46.9415 59.8059 47.1623C59.4006 47.3831 58.9465 47.4992 58.485 47.5H11.5266C11.0644 47.4999 10.6096 47.3842 10.2035 47.1634C9.79747 46.9426 9.45309 46.6238 9.20175 46.2359C8.95041 45.848 8.80009 45.4034 8.76448 44.9426C8.72887 44.4818 8.80911 44.0194 8.99788 43.5975L13.125 34.3808V22.6791L13.1395 21.95C13.3391 16.2854 15.7295 10.9193 19.8073 6.98247C23.8851 3.04558 29.3319 0.845216 35 0.84495V0.842033ZM67.0833 19.0625C67.6375 19.0626 68.171 19.2732 68.576 19.6515C68.981 20.0299 69.2273 20.5479 69.265 21.1009C69.3028 21.6538 69.1293 22.2005 68.7795 22.6304C68.4298 23.0603 67.9299 23.3415 67.3808 23.417L67.0833 23.4375H61.25C60.6957 23.4373 60.1622 23.2267 59.7572 22.8484C59.3523 22.47 59.106 21.952 59.0682 21.3991C59.0304 20.8461 59.204 20.2994 59.5537 19.8695C59.9035 19.4396 60.4034 19.1584 60.9525 19.0829L61.25 19.0625H67.0833ZM8.74996 19.0625C9.3042 19.0626 9.83771 19.2732 10.2427 19.6515C10.6477 20.0299 10.8939 20.5479 10.9317 21.1009C10.9695 21.6538 10.796 22.2005 10.4462 22.6304C10.0964 23.0603 9.59653 23.3415 9.04746 23.417L8.74996 23.4375H2.91663C2.3624 23.4373 1.82889 23.2267 1.4239 22.8484C1.01892 22.47 0.772665 21.952 0.734888 21.3991C0.697111 20.8461 0.870633 20.2994 1.22039 19.8695C1.57015 19.4396 2.07007 19.1584 2.61913 19.0829L2.91663 19.0625H8.74996ZM65.9166 2.43745C66.2313 2.85669 66.3849 3.37499 66.3496 3.89799C66.3143 4.42099 66.0923 4.91392 65.7241 5.28703L65.4791 5.49995L59.6458 9.87495C59.2042 10.2078 58.653 10.361 58.103 10.3038C57.553 10.2466 57.0451 9.98329 56.6814 9.56676C56.3177 9.15023 56.1253 8.61142 56.1428 8.05875C56.1603 7.50607 56.3865 6.98053 56.7758 6.58787L57.0208 6.37495L62.8541 1.99995C63.3183 1.65185 63.9017 1.50239 64.476 1.58444C65.0503 1.66648 65.5685 1.97332 65.9166 2.43745ZM7.1458 1.99995L12.9791 6.37495C13.2089 6.54731 13.4026 6.76325 13.5489 7.01043C13.6953 7.25762 13.7915 7.53121 13.8321 7.81559C13.8728 8.09997 13.857 8.38957 13.7857 8.66785C13.7144 8.94613 13.589 9.20764 13.4166 9.43745C13.2443 9.66726 13.0283 9.86088 12.7811 10.0072C12.534 10.1536 12.2604 10.2498 11.976 10.2905C11.6916 10.3311 11.402 10.3153 11.1237 10.244C10.8455 10.1727 10.5839 10.0473 10.3541 9.87495L4.5208 5.49995C4.29098 5.32759 4.09737 5.11165 3.95101 4.86447C3.80465 4.61728 3.70841 4.34369 3.66778 4.05931C3.62716 3.77493 3.64294 3.48533 3.71424 3.20705C3.78553 2.92878 3.91094 2.66726 4.0833 2.43745C4.25566 2.20764 4.47159 2.01402 4.71878 1.86766C4.96597 1.7213 5.23956 1.62506 5.52394 1.58444C5.80832 1.54381 6.09791 1.55959 6.37619 1.63089C6.65447 1.70218 6.91598 1.82759 7.1458 1.99995Z" fill="#BC1E2D"/>
</svg>
