<svg width="20" height="20" viewBox="0 0 20 20" fill="none" xmlns="http://www.w3.org/2000/svg">
<path d="M15.5556 17.7778H8.51667L10.5556 15.7611L5.05556 10.2611L1.96667 13.3333C1.87126 13.4279 1.79553 13.5403 1.74384 13.6643C1.69216 13.7883 1.66555 13.9212 1.66555 14.0556C1.66555 14.1899 1.69216 14.3228 1.74384 14.4468C1.79553 14.5708 1.87126 14.6832 1.96667 14.7778L5 17.7778H1.66667C1.51933 17.7778 1.37802 17.8363 1.27383 17.9405C1.16965 18.0447 1.11111 18.186 1.11111 18.3333C1.11111 18.4807 1.16965 18.622 1.27383 18.7262C1.37802 18.8304 1.51933 18.8889 1.66667 18.8889H15.5556C15.7029 18.8889 15.8442 18.8304 15.9484 18.7262C16.0526 18.622 16.1111 18.4807 16.1111 18.3333C16.1111 18.186 16.0526 18.0447 15.9484 17.9405C15.8442 17.8363 15.7029 17.7778 15.5556 17.7778Z" fill="#BC1E2D"/>
<path d="M18.9333 5.91667L14.8778 1.86112C14.7833 1.76571 14.6708 1.68998 14.5468 1.63829C14.4228 1.58661 14.2899 1.56 14.1556 1.56C14.0213 1.56 13.8883 1.58661 13.7643 1.63829C13.6404 1.68998 13.5279 1.76571 13.4333 1.86112L5.81668 9.47778L11.3167 14.9778L18.9333 7.36112C19.1233 7.16875 19.2299 6.90927 19.2299 6.6389C19.2299 6.36852 19.1233 6.10904 18.9333 5.91667Z" fill="#BC1E2D"/>
</svg>
