<svg width="30" height="30" viewBox="0 0 30 30" fill="none" xmlns="http://www.w3.org/2000/svg">
<path d="M26.2 0.600006H3.80001C2.04001 0.600006 0.600006 2.04001 0.600006 3.80001V26.2C0.600006 27.9616 2.04001 29.4 3.80001 29.4H15V18.2H11.8V14.24H15V10.96C15 7.49761 16.9392 5.06561 21.0256 5.06561L23.9104 5.06881V9.2368H21.9952C20.4048 9.2368 19.8 10.4304 19.8 11.5376V14.2416H23.9088L23 18.2H19.8V29.4H26.2C27.96 29.4 29.4 27.9616 29.4 26.2V3.80001C29.4 2.04001 27.96 0.600006 26.2 0.600006Z" fill="#BC1E2D"/>
</svg>
