<svg width="8" height="15" viewBox="0 0 8 15" fill="none" xmlns="http://www.w3.org/2000/svg">
<path d="M1.17002 15C1.31941 15.0005 1.46702 14.9675 1.602 14.9035C1.73698 14.8395 1.8559 14.746 1.95002 14.63L6.78002 8.63C6.9271 8.45107 7.00751 8.22663 7.00751 7.995C7.00751 7.76338 6.9271 7.53893 6.78002 7.36L1.78002 1.36C1.61028 1.15578 1.36637 1.02736 1.10194 1.00298C0.837517 0.978601 0.574236 1.06026 0.370019 1.23C0.165803 1.39974 0.0373788 1.64365 0.0129991 1.90808C-0.0113807 2.1725 0.0702806 2.43578 0.240019 2.64L4.71002 8L0.39002 13.36C0.267737 13.5068 0.19006 13.6855 0.16618 13.8751C0.142301 14.0646 0.173217 14.257 0.255273 14.4296C0.337329 14.6021 0.467089 14.7475 0.6292 14.8486C0.79131 14.9497 0.978986 15.0022 1.17002 15Z" fill="#BC1E2D"/>
</svg>
