<svg width="28" height="28" viewBox="0 0 28 28" fill="none" xmlns="http://www.w3.org/2000/svg">
<path d="M14 0.666656C17.6227 0.666656 18.0747 0.67999 19.496 0.746656C20.916 0.813323 21.8827 1.03599 22.7333 1.36666C23.6133 1.70532 24.3547 2.16399 25.096 2.90399C25.774 3.57052 26.2986 4.37678 26.6333 5.26666C26.9627 6.11599 27.1867 7.08399 27.2533 8.50399C27.316 9.92532 27.3333 10.3773 27.3333 14C27.3333 17.6227 27.32 18.0747 27.2533 19.496C27.1867 20.916 26.9627 21.8827 26.6333 22.7333C26.2996 23.6237 25.7748 24.4301 25.096 25.096C24.4293 25.7738 23.6231 26.2983 22.7333 26.6333C21.884 26.9627 20.916 27.1867 19.496 27.2533C18.0747 27.316 17.6227 27.3333 14 27.3333C10.3773 27.3333 9.92532 27.32 8.50399 27.2533C7.08399 27.1867 6.11732 26.9627 5.26666 26.6333C4.37643 26.2993 3.57003 25.7746 2.90399 25.096C2.22587 24.4296 1.70123 23.6233 1.36666 22.7333C1.03599 21.884 0.813323 20.916 0.746656 19.496C0.68399 18.0747 0.666656 17.6227 0.666656 14C0.666656 10.3773 0.67999 9.92532 0.746656 8.50399C0.813323 7.08266 1.03599 6.11732 1.36666 5.26666C1.7003 4.37623 2.22506 3.56975 2.90399 2.90399C3.57022 2.22563 4.37656 1.70096 5.26666 1.36666C6.11732 1.03599 7.08266 0.813323 8.50399 0.746656C9.92532 0.68399 10.3773 0.666656 14 0.666656ZM14 7.33332C12.2319 7.33332 10.5362 8.0357 9.28595 9.28595C8.0357 10.5362 7.33332 12.2319 7.33332 14C7.33332 15.7681 8.0357 17.4638 9.28595 18.714C10.5362 19.9643 12.2319 20.6667 14 20.6667C15.7681 20.6667 17.4638 19.9643 18.714 18.714C19.9643 17.4638 20.6667 15.7681 20.6667 14C20.6667 12.2319 19.9643 10.5362 18.714 9.28595C17.4638 8.0357 15.7681 7.33332 14 7.33332ZM22.6667 6.99999C22.6667 6.55796 22.4911 6.13404 22.1785 5.82148C21.8659 5.50892 21.442 5.33332 21 5.33332C20.558 5.33332 20.134 5.50892 19.8215 5.82148C19.5089 6.13404 19.3333 6.55796 19.3333 6.99999C19.3333 7.44202 19.5089 7.86594 19.8215 8.1785C20.134 8.49106 20.558 8.66666 21 8.66666C21.442 8.66666 21.8659 8.49106 22.1785 8.1785C22.4911 7.86594 22.6667 7.44202 22.6667 6.99999ZM14 9.99999C15.0609 9.99999 16.0783 10.4214 16.8284 11.1716C17.5786 11.9217 18 12.9391 18 14C18 15.0609 17.5786 16.0783 16.8284 16.8284C16.0783 17.5786 15.0609 18 14 18C12.9391 18 11.9217 17.5786 11.1716 16.8284C10.4214 16.0783 9.99999 15.0609 9.99999 14C9.99999 12.9391 10.4214 11.9217 11.1716 11.1716C11.9217 10.4214 12.9391 9.99999 14 9.99999Z" fill="#BC1E2D"/>
</svg>
