<svg width="25" height="20" viewBox="0 0 25 20" fill="none" xmlns="http://www.w3.org/2000/svg">
<g clip-path="url(#clip0_1_404)">
<path d="M10 18.5C10 18.5417 10.0052 18.6458 10.0156 18.8125C10.026 18.9792 10.0286 19.1172 10.0234 19.2266C10.0182 19.3359 10.0026 19.4583 9.97656 19.5938C9.95052 19.7292 9.89844 19.8307 9.82031 19.8984C9.74219 19.9661 9.63542 20 9.5 20H4.5C3.26042 20 2.20052 19.5599 1.32031 18.6797C0.440104 17.7995 0 16.7396 0 15.5V4.5C0 3.26042 0.440104 2.20052 1.32031 1.32031C2.20052 0.440104 3.26042 0 4.5 0H9.5C9.63542 0 9.7526 0.0494792 9.85156 0.148438C9.95052 0.247396 10 0.364583 10 0.5C10 0.541667 10.0052 0.645833 10.0156 0.8125C10.026 0.979167 10.0286 1.11719 10.0234 1.22656C10.0182 1.33594 10.0026 1.45833 9.97656 1.59375C9.95052 1.72917 9.89844 1.83073 9.82031 1.89844C9.74219 1.96615 9.63542 2 9.5 2H4.5C3.8125 2 3.22396 2.24479 2.73437 2.73438C2.24479 3.22396 2 3.8125 2 4.5V15.5C2 16.1875 2.24479 16.776 2.73437 17.2656C3.22396 17.7552 3.8125 18 4.5 18H9.375L9.55469 18.0156L9.73437 18.0625L9.85937 18.1484L9.96875 18.2891L10 18.5ZM24.5 10C24.5 10.2708 24.401 10.5052 24.2031 10.7031L15.7031 19.2031C15.5052 19.401 15.2708 19.5 15 19.5C14.7292 19.5 14.4948 19.401 14.2969 19.2031C14.099 19.0052 14 18.7708 14 18.5V14H7C6.72917 14 6.49479 13.901 6.29687 13.7031C6.09896 13.5052 6 13.2708 6 13V7C6 6.72917 6.09896 6.49479 6.29687 6.29688C6.49479 6.09896 6.72917 6 7 6H14V1.5C14 1.22917 14.099 0.994792 14.2969 0.796875C14.4948 0.598958 14.7292 0.5 15 0.5C15.2708 0.5 15.5052 0.598958 15.7031 0.796875L24.2031 9.29688C24.401 9.49479 24.5 9.72917 24.5 10Z" fill="white"/>
</g>
<defs>
<clipPath id="clip0_1_404">
<rect width="24.5" height="20" fill="white"/>
</clipPath>
</defs>
</svg>
