<svg width="28" height="22" viewBox="0 0 28 22" fill="none" xmlns="http://www.w3.org/2000/svg">
<path d="M24.6667 0.333332H3.33332C1.86666 0.333332 0.67999 1.53333 0.67999 3L0.666656 19C0.666656 20.4667 1.86666 21.6667 3.33332 21.6667H24.6667C26.1333 21.6667 27.3333 20.4667 27.3333 19V3C27.3333 1.53333 26.1333 0.333332 24.6667 0.333332ZM24.1333 6L14.7067 11.8933C14.28 12.16 13.72 12.16 13.2933 11.8933L3.86666 6C3.73296 5.92495 3.61588 5.82355 3.52251 5.70194C3.42913 5.58033 3.36141 5.44104 3.32342 5.29249C3.28544 5.14395 3.27799 4.98925 3.30153 4.83774C3.32507 4.68624 3.3791 4.54108 3.46037 4.41107C3.54163 4.28105 3.64842 4.16887 3.77429 4.08133C3.90016 3.99378 4.04248 3.93268 4.19265 3.90173C4.34282 3.87078 4.4977 3.87062 4.64793 3.90126C4.79816 3.9319 4.94061 3.99271 5.06666 4.08L14 9.66667L22.9333 4.08C23.0594 3.99271 23.2018 3.9319 23.3521 3.90126C23.5023 3.87062 23.6572 3.87078 23.8073 3.90173C23.9575 3.93268 24.0998 3.99378 24.2257 4.08133C24.3516 4.16887 24.4584 4.28105 24.5396 4.41107C24.6209 4.54108 24.6749 4.68624 24.6984 4.83774C24.722 4.98925 24.7145 5.14395 24.6766 5.29249C24.6386 5.44104 24.5708 5.58033 24.4775 5.70194C24.3841 5.82355 24.267 5.92495 24.1333 6Z" fill="#BC1E2D"/>
</svg>
