<svg width="32" height="32" viewBox="0 0 32 32" fill="none" xmlns="http://www.w3.org/2000/svg">
<path d="M18.6494 15.5C18.6986 15.5 18.7468 15.4855 18.7878 15.4583C18.8289 15.4311 18.861 15.3923 18.88 15.3469C18.8991 15.3015 18.9044 15.2515 18.8952 15.2031C18.8859 15.1547 18.8626 15.1102 18.8281 15.075L13.9281 10.0925C13.8933 10.0571 13.8487 10.0329 13.8001 10.023C13.7515 10.013 13.701 10.0178 13.6551 10.0366C13.6092 10.0555 13.5699 10.0875 13.5423 10.1288C13.5147 10.17 13.5 10.2185 13.5 10.2681V14.75C13.5 14.9489 13.579 15.1397 13.7197 15.2803C13.8603 15.421 14.0511 15.5 14.25 15.5H18.6494Z" fill="#BC1E2D"/>
<path d="M12.3125 16.6875C12.0558 16.4342 11.8518 16.1326 11.7124 15.8001C11.5729 15.4675 11.5007 15.1106 11.5 14.75V9H7C5.9401 9.00313 4.9245 9.42557 4.17503 10.175C3.42557 10.9245 3.00313 11.9401 3 13V27C3 28.0609 3.42143 29.0783 4.17157 29.8284C4.92172 30.5786 5.93913 31 7 31H16C17.0609 31 18.0783 30.5786 18.8284 29.8284C19.5786 29.0783 20 28.0609 20 27V17.5H14.25C13.8894 17.4995 13.5324 17.4274 13.1998 17.2879C12.8672 17.1485 12.5656 16.9444 12.3125 16.6875Z" fill="#BC1E2D"/>
<path d="M23.25 7.50001H27.6494C27.6986 7.50005 27.7468 7.48554 27.7878 7.45831C27.8289 7.43108 27.861 7.39233 27.88 7.34693C27.8991 7.30153 27.9044 7.2515 27.8952 7.20313C27.8859 7.15475 27.8626 7.11018 27.8281 7.075L22.9281 2.0925C22.8933 2.05714 22.8487 2.03295 22.8001 2.023C22.7515 2.01304 22.701 2.01779 22.6551 2.03662C22.6092 2.05546 22.5699 2.08753 22.5423 2.12876C22.5147 2.16998 22.5 2.2185 22.5 2.26813V6.75C22.5 6.94892 22.579 7.13968 22.7197 7.28034C22.8603 7.42099 23.0511 7.50001 23.25 7.50001Z" fill="#BC1E2D"/>
<path d="M23.25 9.5C22.5224 9.49444 21.8261 9.20293 21.3116 8.6884C20.7971 8.17388 20.5056 7.47763 20.5 6.75V1H13.75C12.7558 1.00116 11.8026 1.39662 11.0996 2.09963C10.3966 2.80264 10.0012 3.75579 10 4.75V7H12.6325C12.9685 7.00134 13.3009 7.06907 13.6107 7.19928C13.9205 7.32949 14.2014 7.51962 14.4375 7.75875L21.26 14.6962C21.736 15.1792 22.0017 15.8307 21.9994 16.5088V25H25.315C27.3469 25 28.9994 23.3175 28.9994 21.25V9.5H23.25Z" fill="#BC1E2D"/>
</svg>
