<svg width="32" height="32" viewBox="0 0 32 32" fill="none" xmlns="http://www.w3.org/2000/svg">
<path d="M14.73 4.596C14.21 3.55733 13.1233 2.71667 11.7887 2.86533C10.5947 2.998 8.822 3.442 7.61334 4.89733C6.37334 6.39333 5.91 8.72533 6.86267 12.22C7.88 15.9473 9.39067 19.6213 11.2687 22.5867C13.1327 25.53 15.4287 27.8853 18.0627 28.7887C20.392 29.588 22.1733 29.2547 23.4727 28.3773C24.726 27.5313 25.414 26.2587 25.77 25.3773C26.1687 24.39 25.906 23.3627 25.386 22.606L23.468 19.8167C23.0443 19.2003 22.4343 18.7359 21.7274 18.4915C21.0205 18.2471 20.2539 18.2356 19.54 18.4587L16.8893 19.2867C16.8057 19.3154 16.7154 19.319 16.6297 19.297C16.5441 19.2749 16.4667 19.2282 16.4073 19.1627C15.2273 17.7807 13.9053 15.8533 13.546 13.9027C13.5346 13.8506 13.5424 13.7961 13.568 13.7493C13.958 13.094 14.6287 12.3513 15.2967 11.7013C16.428 10.5993 16.8567 8.84933 16.11 7.35733L14.73 4.59733V4.596Z" fill="#BC1E2D"/>
</svg>
