<svg width="26" height="28" viewBox="0 0 26 28" fill="none" xmlns="http://www.w3.org/2000/svg">
<path d="M14.3902 0.588225C13.9907 0.210476 13.4617 0 12.9118 0C12.362 0 11.833 0.210476 11.4334 0.588225L1.00928 10.4399C0.690098 10.742 0.43595 11.106 0.262404 11.5097C0.0888571 11.9134 -0.000433777 12.3483 1.58439e-06 12.7877V24.7742C0.000572074 25.6299 0.340911 26.4504 0.946208 27.0553C1.5515 27.6602 2.37222 28 3.22795 28H6.45591C7.31201 28 8.13306 27.6599 8.73842 27.0546C9.34377 26.4492 9.68386 25.6282 9.68386 24.772V19.3921C9.68386 19.1068 9.79722 18.8331 9.99901 18.6313C10.2008 18.4295 10.4745 18.3161 10.7598 18.3161H15.0638C15.3492 18.3161 15.6228 18.4295 15.8246 18.6313C16.0264 18.8331 16.1398 19.1068 16.1398 19.3921V24.772C16.1398 25.6282 16.4799 26.4492 17.0852 27.0546C17.6906 27.6599 18.5116 28 19.3677 28H22.5957C23.4518 28 24.2728 27.6599 24.8782 27.0546C25.4835 26.4492 25.8236 25.6282 25.8236 24.772V12.7856C25.8235 12.3464 25.7337 11.9118 25.5598 11.5085C25.3859 11.1051 25.1315 10.7415 24.8122 10.4399L14.3902 0.583921V0.588225Z" fill="#BC1E2D"/>
</svg>
