<svg width="32" height="32" viewBox="0 0 32 32" fill="none" xmlns="http://www.w3.org/2000/svg">
<path d="M16.2214 4C17.2827 4 20.8814 4.29733 22.58 8.09733C23.148 9.376 23.012 11.5493 22.9 13.2947L22.8974 13.3573C22.8827 13.552 22.8734 13.728 22.8654 13.904C22.9972 13.9742 23.1455 14.0074 23.2947 14C23.616 13.9827 24.0014 13.872 24.4027 13.6787C24.5572 13.6022 24.7277 13.5638 24.9 13.5667C25.0947 13.5667 25.2854 13.5973 25.4454 13.6627C25.9267 13.8227 26.232 14.176 26.232 14.5613C26.2494 15.0427 25.8147 15.4613 24.932 15.8133C24.8374 15.844 24.7067 15.8947 24.564 15.9413C24.08 16.0867 23.3414 16.3267 23.1334 16.8093C23.0374 17.0507 23.068 17.3707 23.264 17.7387L23.28 17.756C23.344 17.9013 24.9174 21.4827 28.4187 22.0613C28.5471 22.082 28.6636 22.1488 28.7463 22.2492C28.829 22.3496 28.8723 22.4767 28.868 22.6067C28.868 22.6867 28.8507 22.7653 28.82 22.848C28.5627 23.4573 27.456 23.908 25.4467 24.2093C25.384 24.3067 25.3187 24.612 25.2707 24.8213C25.2414 25.0133 25.1907 25.2067 25.128 25.4133C25.0467 25.704 24.8387 25.8467 24.5334 25.8467H24.5014C24.307 25.8377 24.1137 25.8114 23.924 25.768C23.4754 25.6712 23.0177 25.6229 22.5587 25.624C22.2387 25.624 21.9187 25.64 21.5827 25.704C20.9387 25.816 20.3774 26.2013 19.7347 26.6507C18.8187 27.292 17.776 28.032 16.2027 28.032C16.1387 28.032 16.0747 28.016 16.008 28.016H15.8494C14.2747 28.016 13.248 27.292 12.3334 26.6347C11.692 26.184 11.1467 25.8 10.5027 25.6867C10.1738 25.6375 9.8419 25.6108 9.50936 25.6067C8.92936 25.6067 8.48136 25.7027 8.14536 25.7667C7.9187 25.8133 7.7267 25.8453 7.56536 25.8453C7.42476 25.856 7.28488 25.8168 7.17029 25.7347C7.05569 25.6525 6.9737 25.5326 6.9387 25.396C6.8747 25.1907 6.84403 24.9787 6.79603 24.788C6.74536 24.5933 6.6827 24.26 6.6187 24.1773C4.56136 23.9387 3.4547 23.488 3.1987 22.8627C3.16334 22.7869 3.14339 22.7049 3.14003 22.6213C3.1349 22.4911 3.17787 22.3636 3.26073 22.263C3.3436 22.1624 3.46057 22.0959 3.58936 22.076C7.08936 21.4973 8.6627 17.9173 8.72803 17.7667L8.74536 17.736C8.9387 17.3667 8.98536 17.0427 8.87336 16.804C8.66536 16.3387 7.92536 16.0987 7.4467 15.9373C7.31933 15.9052 7.19489 15.8623 7.0747 15.8093C5.88803 15.3427 5.7267 14.812 5.79203 14.444C5.88803 13.932 6.51336 13.5947 7.04403 13.5947C7.20003 13.5947 7.33336 13.6253 7.4547 13.6747C7.90403 13.8813 8.30136 13.996 8.6387 13.996C8.81153 14.0023 8.98301 13.9633 9.13603 13.8827L9.08136 13.272C8.9747 11.5293 8.8387 9.35867 9.4107 8.08667C11.0587 4.30533 14.6494 4.01467 15.7094 4.01467L16.156 4H16.2214Z" fill="#BC1E2D"/>
</svg>
