<svg width="28" height="32" viewBox="0 0 28 32" fill="none" xmlns="http://www.w3.org/2000/svg">
<path d="M28 13.1194C25.2484 13.126 22.5643 12.2678 20.3269 10.6663V21.8363C20.3261 23.9051 19.6938 25.9243 18.5144 27.6241C17.3351 29.3238 15.6649 30.6229 13.7272 31.3478C11.7896 32.0727 9.67681 32.1888 7.67142 31.6805C5.66603 31.1722 3.86361 30.0638 2.50517 28.5035C1.14673 26.9431 0.29702 25.0053 0.0696628 22.949C-0.157694 20.8927 0.248136 18.8161 1.23289 16.9967C2.21764 15.1773 3.73438 13.7019 5.58028 12.7677C7.42619 11.8336 9.51329 11.4853 11.5625 11.7694V17.3875C10.6248 17.0925 9.61783 17.1014 8.68546 17.4129C7.75309 17.7243 6.94298 18.3225 6.3708 19.1218C5.79863 19.9211 5.49367 20.8808 5.49946 21.8638C5.50525 22.8468 5.8215 23.8029 6.40304 24.5954C6.98459 25.3879 7.8017 25.9765 8.73767 26.2769C9.67365 26.5774 10.6806 26.5744 11.6148 26.2684C12.549 25.9624 13.3626 25.3691 13.9395 24.5731C14.5163 23.7772 14.8269 22.8193 14.8269 21.8363V0H20.3269C20.3231 0.464463 20.362 0.928292 20.4431 1.38563C20.6342 2.40655 21.0316 3.37775 21.611 4.23983C22.1903 5.10191 22.9394 5.83674 23.8125 6.39937C25.0546 7.22068 26.5109 7.65844 28 7.65812V13.1194Z" fill="#BC1E2D"/>
</svg>
