<svg width="28" height="32" viewBox="0 0 28 32" fill="none" xmlns="http://www.w3.org/2000/svg">
<g clip-path="url(#clip0_1_293)">
<path d="M24.8447 2H2.98137C1.3354 2 0 3.34375 0 5V27C0 28.6562 1.3354 30 2.98137 30H24.8447C26.4907 30 27.8261 28.6562 27.8261 27V5C27.8261 3.34375 26.4907 2 24.8447 2ZM21.8075 11.925C21.8199 12.1 21.8199 12.2812 21.8199 12.4563C21.8199 17.875 17.7205 24.1187 10.2298 24.1187C7.91926 24.1187 5.7764 23.4438 3.97516 22.2812C4.30435 22.3188 4.62112 22.3312 4.95652 22.3312C6.86336 22.3312 8.61491 21.6812 10.0124 20.5812C8.2236 20.5437 6.7205 19.3625 6.20497 17.7375C6.8323 17.8312 7.39752 17.8313 8.04348 17.6625C6.18013 17.2812 4.78261 15.6312 4.78261 13.6375V13.5875C5.32298 13.8937 5.95652 14.0813 6.62112 14.1062C6.06238 13.7323 5.60434 13.2249 5.28787 12.6295C4.9714 12.034 4.80636 11.369 4.80745 10.6938C4.80745 9.93125 5.00621 9.23125 5.36025 8.625C7.36646 11.1125 10.3789 12.7375 13.7578 12.9125C13.1801 10.1313 15.2485 7.875 17.7329 7.875C18.9068 7.875 19.9627 8.36875 20.7081 9.16875C21.6273 8.99375 22.5093 8.65 23.2919 8.18125C22.9876 9.13125 22.3478 9.93125 21.5031 10.4375C22.323 10.35 23.118 10.1188 23.8509 9.8C23.2981 10.6188 22.6025 11.3438 21.8075 11.925Z" fill="#BC1E2D"/>
</g>
<defs>
<clipPath id="clip0_1_293">
<rect width="27.8261" height="32" fill="white"/>
</clipPath>
</defs>
</svg>
