<svg width="31" height="32" viewBox="0 0 31 32" fill="none" xmlns="http://www.w3.org/2000/svg">
<path d="M20.6784 10.8871C19.8304 5.66593 17.8304 2 15.5029 2C13.1754 2 11.1754 5.66593 10.3275 10.8871H20.6784ZM9.88889 16.5C9.88889 17.798 9.95906 19.0433 10.0819 20.2419H20.9181C21.0409 19.0433 21.1111 17.798 21.1111 16.5C21.1111 15.202 21.0409 13.9567 20.9181 12.7581H10.0819C9.95906 13.9567 9.88889 15.202 9.88889 16.5ZM28.8772 10.8871C27.2047 6.91714 23.8187 3.84758 19.6374 2.60806C21.0643 4.58427 22.0468 7.56028 22.5614 10.8871H28.8772ZM11.3626 2.60806C7.18713 3.84758 3.79532 6.91714 2.12865 10.8871H8.44444C8.95322 7.56028 9.93567 4.58427 11.3626 2.60806ZM29.5029 12.7581H22.7953C22.9181 13.9859 22.9883 15.2429 22.9883 16.5C22.9883 17.7571 22.9181 19.0141 22.7953 20.2419H29.4971C29.8187 19.0433 30 17.798 30 16.5C30 15.202 29.8187 13.9567 29.5029 12.7581ZM8.01754 16.5C8.01754 15.2429 8.08772 13.9859 8.21053 12.7581H1.50292C1.18713 13.9567 1 15.202 1 16.5C1 17.798 1.18713 19.0433 1.50292 20.2419H8.20468C8.08772 19.0141 8.01754 17.7571 8.01754 16.5ZM10.3275 22.1129C11.1754 27.3341 13.1754 31 15.5029 31C17.8304 31 19.8304 27.3341 20.6784 22.1129H10.3275ZM19.6433 30.3919C23.8187 29.1524 27.2105 26.0829 28.883 22.1129H22.5673C22.0526 25.4397 21.0702 28.4157 19.6433 30.3919ZM2.12865 22.1129C3.80117 26.0829 7.18713 29.1524 11.3684 30.3919C9.94152 28.4157 8.95906 25.4397 8.44444 22.1129H2.12865Z" fill="#BC1E2D"/>
</svg>
