<svg width="17" height="17" viewBox="0 0 17 17" fill="none" xmlns="http://www.w3.org/2000/svg">
<path d="M8.29334 0.868002C6.88146 0.867589 5.49524 1.24544 4.27885 1.96225C3.06246 2.67907 2.06032 3.70867 1.37665 4.94399C0.692979 6.17931 0.352741 7.57523 0.391318 8.98659C0.429895 10.3979 0.845879 11.7732 1.59601 12.9693L1.78401 13.268L0.985344 16.1827L3.97601 15.3987L4.26401 15.5693C5.48146 16.2904 6.8704 16.6707 8.28534 16.6707H8.28934C10.3851 16.671 12.3951 15.8388 13.8773 14.3572C15.3595 12.8755 16.1923 10.8657 16.1927 8.77C16.193 6.67426 15.3608 4.66422 13.8792 3.18205C12.3975 1.69989 10.3877 0.867022 8.29201 0.866669L8.29334 0.868002ZM12.9387 12.1613C12.7639 12.45 12.5313 12.6993 12.2555 12.8937C11.9797 13.088 11.6666 13.2232 11.336 13.2907C10.8369 13.3763 10.3246 13.3443 9.84001 13.1973C9.3804 13.0541 8.92867 12.8868 8.48668 12.696C6.84631 11.8728 5.44814 10.6373 4.42934 9.11067C3.87358 8.40396 3.53622 7.55038 3.45868 6.65467C3.45227 6.28495 3.52294 5.91796 3.66619 5.57706C3.80944 5.23617 4.02211 4.92884 4.29068 4.67467C4.37004 4.58413 4.46728 4.51097 4.57627 4.45981C4.68526 4.40864 4.80365 4.38056 4.92401 4.37733C5.08134 4.37733 5.24001 4.37733 5.37868 4.38533C5.52534 4.392 5.72001 4.32933 5.91201 4.79333C6.11201 5.268 6.58668 6.43733 6.64534 6.556C6.683 6.61821 6.70455 6.68883 6.70804 6.76147C6.71154 6.8341 6.69686 6.90646 6.66534 6.972C6.60553 7.11465 6.52561 7.248 6.42801 7.368C6.30801 7.50667 6.17868 7.67733 6.07201 7.784C5.95201 7.90267 5.82934 8.03067 5.96668 8.268C6.32338 8.87874 6.76866 9.43321 7.28801 9.91333C7.85152 10.4143 8.4981 10.8132 9.19868 11.092C9.43601 11.212 9.57468 11.1907 9.71334 11.032C9.85201 10.8733 10.3067 10.3387 10.4653 10.1013C10.624 9.864 10.7813 9.904 10.9987 9.98267C11.216 10.0613 12.3853 10.636 12.6227 10.756C12.86 10.876 13.0187 10.9333 13.0773 11.032C13.1424 11.4139 13.0942 11.8065 12.9387 12.1613Z" fill="#BC1E2D"/>
</svg>
