<svg width="32" height="32" viewBox="0 0 32 32" fill="none" xmlns="http://www.w3.org/2000/svg">
<path d="M29.32 8.72934C29.3089 8.1573 29.263 7.58647 29.1827 7.02C29.0869 6.51614 28.9241 6.02736 28.6987 5.56667C28.2051 4.59241 27.414 3.80077 26.44 3.30667C25.9823 3.08229 25.4966 2.91997 24.996 2.82401C24.4252 2.74198 23.8499 2.69523 23.2733 2.68401C23.0293 2.67467 22.7133 2.67067 22.5667 2.67067L9.43599 2.66667C9.28932 2.66667 8.97332 2.67067 8.72932 2.68001C8.15729 2.69103 7.58645 2.73689 7.01999 2.81734C6.51613 2.91312 6.02734 3.0759 5.56666 3.30134C4.59245 3.79494 3.80083 4.58609 3.30666 5.56C3.08233 6.01776 2.92001 6.50337 2.82399 7.004C2.74159 7.57478 2.69439 8.15009 2.68266 8.72667C2.67466 8.97067 2.66932 9.28667 2.66932 9.43334L2.66666 22.564C2.66666 22.7107 2.67066 23.0267 2.67999 23.2707C2.69101 23.8427 2.73687 24.4135 2.81732 24.98C2.91313 25.4839 3.0759 25.9726 3.30132 26.4333C3.79492 27.4075 4.58607 28.1992 5.55999 28.6933C6.01776 28.9176 6.50336 29.0799 7.00399 29.176C7.57479 29.258 8.1501 29.3048 8.72666 29.316C8.97066 29.3253 9.28666 29.3293 9.43332 29.3293L22.564 29.332C22.7107 29.332 23.0267 29.328 23.2707 29.3187C23.8427 29.3076 24.4135 29.2617 24.98 29.1813C25.4838 29.0855 25.9726 28.9227 26.4333 28.6973C27.408 28.204 28.2001 27.4128 28.6947 26.4387C28.919 25.9809 29.0813 25.4953 29.1773 24.9947C29.2598 24.4239 29.307 23.8486 29.3187 23.272C29.3267 23.028 29.332 22.712 29.332 22.5653L29.3333 9.436C29.3333 9.28934 29.3293 8.97334 29.32 8.72934ZM16.2893 25.276H16.2853C14.6982 25.2757 13.1365 24.8778 11.7427 24.1187L6.70266 25.44L8.05199 20.516C7.00726 18.7031 6.58982 16.5962 6.86439 14.5219C7.13896 12.4476 8.0902 10.5218 9.57062 9.04311C11.051 7.56445 12.978 6.6155 15.0526 6.3434C17.1272 6.0713 19.2336 6.49124 21.0453 7.53813C22.857 8.58501 24.2727 10.2003 25.0729 12.1337C25.8731 14.067 26.0131 16.2104 25.4712 18.2314C24.9293 20.2524 23.7358 22.0381 22.0757 23.3118C20.4156 24.5855 18.3817 25.2759 16.2893 25.276Z" fill="#BC1E2D"/>
<path d="M16.2933 7.868C14.8815 7.86759 13.4952 8.24544 12.2789 8.96225C11.0625 9.67907 10.0603 10.7087 9.37665 11.944C8.69298 13.1793 8.35274 14.5752 8.39132 15.9866C8.42989 17.3979 8.84588 18.7732 9.59601 19.9693L9.78401 20.268L8.98534 23.1827L11.976 22.3987L12.264 22.5693C13.4815 23.2904 14.8704 23.6707 16.2853 23.6707H16.2893C18.3851 23.671 20.3951 22.8388 21.8773 21.3572C23.3595 19.8755 24.1923 17.8657 24.1927 15.77C24.193 13.6743 23.3608 11.6642 21.8792 10.1821C20.3975 8.69989 18.3877 7.86702 16.292 7.86667L16.2933 7.868ZM20.9387 19.1613C20.7639 19.45 20.5313 19.6993 20.2555 19.8937C19.9797 20.088 19.6666 20.2232 19.336 20.2907C18.8369 20.3763 18.3246 20.3443 17.84 20.1973C17.3804 20.0541 16.9287 19.8868 16.4867 19.696C14.8463 18.8728 13.4481 17.6373 12.4293 16.1107C11.8736 15.404 11.5362 14.5504 11.4587 13.6547C11.4523 13.285 11.5229 12.918 11.6662 12.5771C11.8094 12.2362 12.0221 11.9288 12.2907 11.6747C12.37 11.5841 12.4673 11.511 12.5763 11.4598C12.6853 11.4086 12.8036 11.3806 12.924 11.3773C13.0813 11.3773 13.24 11.3773 13.3787 11.3853C13.5253 11.392 13.72 11.3293 13.912 11.7933C14.112 12.268 14.5867 13.4373 14.6453 13.556C14.683 13.6182 14.7046 13.6888 14.708 13.7615C14.7115 13.8341 14.6969 13.9065 14.6653 13.972C14.6055 14.1146 14.5256 14.248 14.428 14.368C14.308 14.5067 14.1787 14.6773 14.072 14.784C13.952 14.9027 13.8293 15.0307 13.9667 15.268C14.3234 15.8787 14.7687 16.4332 15.288 16.9133C15.8515 17.4143 16.4981 17.8132 17.1987 18.092C17.436 18.212 17.5747 18.1907 17.7133 18.032C17.852 17.8733 18.3067 17.3387 18.4653 17.1013C18.624 16.864 18.7813 16.904 18.9987 16.9827C19.216 17.0613 20.3853 17.636 20.6227 17.756C20.86 17.876 21.0187 17.9333 21.0773 18.032C21.1424 18.4139 21.0942 18.8065 20.9387 19.1613Z" fill="#BC1E2D"/>
</svg>
